<svg id="Layer_1" data-name="Layer 1" xmlns="http://www.w3.org/2000/svg" viewBox="0 0 525.14 181.61"><defs><style>.cls-1{isolation:isolate;}.cls-2{fill:#212121;}.cls-3{fill:none;stroke:#212121;stroke-width:3px;}</style></defs><title>galleryoutline</title><g id="GALLERY" class="cls-1"><g class="cls-1"><path class="cls-2" d="M292.14,619.57q-8.94-8.82-9.56-24.12c-.08-2.47-.12-6.33-.12-11.6s0-9.21.12-11.59q.62-15.18,9.63-23.93t25-8.76q10.85,0,18.44,3.88a30.12,30.12,0,0,1,11.41,9.44q3.82,5.55,4.07,10.36v.25a2,2,0,0,1-.74,1.6,2.74,2.74,0,0,1-1.85.62H341.3a2.93,2.93,0,0,1-1.79-.43,4.05,4.05,0,0,1-1.05-1.79,19.49,19.49,0,0,0-7.09-9.5q-5.24-3.94-14.12-4-10.25,0-16,5.55t-6.29,17.28q-.12,3.57-.12,11t.12,11q.49,11.85,6.29,17.46t16,5.61q10.37,0,16.53-5.67t6.17-17V590H321.44a2.72,2.72,0,0,1-2-.8,2.89,2.89,0,0,1-.81-2.16v-3.95a2.93,2.93,0,0,1,.81-2.09,2.63,2.63,0,0,1,2-.87h27.88a2.8,2.8,0,0,1,2,.8,3,3,0,0,1,.8,2.16V595A35.63,35.63,0,0,1,348,612.6a28.69,28.69,0,0,1-12.09,11.65,39.56,39.56,0,0,1-18.62,4.14Q301.08,628.39,292.14,619.57Z" transform="translate(-282.46 -539.57)"/><path class="cls-2" d="M360.55,626.41a2.33,2.33,0,0,1-.74-1.72,5.13,5.13,0,0,1,.12-1.36l30.59-79.81a3.85,3.85,0,0,1,4-2.72h8.39a3.85,3.85,0,0,1,3.95,2.72l30.47,79.81.24,1.36a2.53,2.53,0,0,1-2.46,2.46h-6.3a2.94,2.94,0,0,1-2.09-.68,3.32,3.32,0,0,1-1-1.41l-6.78-17.52H378.43l-6.78,17.52a3.33,3.33,0,0,1-1,1.41,3,3,0,0,1-2,.68h-6.3A2.32,2.32,0,0,1,360.55,626.41Zm54.77-29.48-16.65-43.79L382,596.93Z" transform="translate(-282.46 -539.57)"/><path class="cls-2" d="M451.52,626.35a2.76,2.76,0,0,1-.8-2V543.64a2.74,2.74,0,0,1,2.84-2.84h6.54a2.74,2.74,0,0,1,2.83,2.84v72.78h41a2.76,2.76,0,0,1,3,3v4.94a2.66,2.66,0,0,1-.86,2,3,3,0,0,1-2.1.8H453.56A2.76,2.76,0,0,1,451.52,626.35Z" transform="translate(-282.46 -539.57)"/><path class="cls-2" d="M521,626.35a2.76,2.76,0,0,1-.8-2V543.64A2.74,2.74,0,0,1,523,540.8h6.54a2.74,2.74,0,0,1,2.83,2.84v72.78h41a2.76,2.76,0,0,1,3,3v4.94a2.66,2.66,0,0,1-.86,2,3,3,0,0,1-2.1.8H523A2.76,2.76,0,0,1,521,626.35Z" transform="translate(-282.46 -539.57)"/><path class="cls-2" d="M590.42,626.35a2.76,2.76,0,0,1-.8-2V543.76a3,3,0,0,1,.8-2.16,2.8,2.8,0,0,1,2-.8h50.95a2.76,2.76,0,0,1,2,.8,3,3,0,0,1,.8,2.16v4.69a2.88,2.88,0,0,1-.74,2,2.71,2.71,0,0,1-2.09.8H601.46v27h39.23a2.8,2.8,0,0,1,2,.8,3,3,0,0,1,.8,2.16v4.57a2.74,2.74,0,0,1-2.84,2.83H601.46v28h42.93a2.8,2.8,0,0,1,2.1.74,2.83,2.83,0,0,1,.74,2.09v4.82a2.74,2.74,0,0,1-2.84,2.83H592.46A2.76,2.76,0,0,1,590.42,626.35Z" transform="translate(-282.46 -539.57)"/><path class="cls-2" d="M665.18,626.35a2.72,2.72,0,0,1-.8-2V543.76a2.91,2.91,0,0,1,.8-2.16,2.76,2.76,0,0,1,2-.8h30.1q14.19,0,22.21,6.66t8,19.25q0,9.38-4.62,15.42a23.88,23.88,0,0,1-13,8.38l19,32.82a3,3,0,0,1,.37,1.36,2.29,2.29,0,0,1-.8,1.72,2.56,2.56,0,0,1-1.79.74h-5.92a4.42,4.42,0,0,1-2.9-.86,8.1,8.1,0,0,1-1.91-2.47l-17.89-31.33H676.46v31.83a2.66,2.66,0,0,1-.86,2,3,3,0,0,1-2.1.8h-6.29A2.72,2.72,0,0,1,665.18,626.35ZM696.82,582q18.38,0,18.38-15.42t-18.38-15.42H676.46V582Z" transform="translate(-282.46 -539.57)"/><path class="cls-2" d="M766.08,626.35a2.76,2.76,0,0,1-.8-2V595.2l-29.73-50.33a3.51,3.51,0,0,0-.12-.74,1.9,1.9,0,0,1-.25-.86,2.53,2.53,0,0,1,2.47-2.47h6.42a3.48,3.48,0,0,1,3.2,2.1l24.06,40,24-40a3.94,3.94,0,0,1,3.33-2.1H805a2.56,2.56,0,0,1,1.86.74,2.39,2.39,0,0,1,.74,1.73,3.85,3.85,0,0,1-.5,1.6L777.5,595.2v29.12a2.63,2.63,0,0,1-.87,2,2.92,2.92,0,0,1-2.09.8h-6.42A2.76,2.76,0,0,1,766.08,626.35Z" transform="translate(-282.46 -539.57)"/></g></g><line id="Line_4" data-name="Line 4" class="cls-3" x1="6.62" y1="180.11" x2="522.48" y2="180.11"/></svg>