<svg id="Layer_1" data-name="Layer 1" xmlns="http://www.w3.org/2000/svg" viewBox="0 0 205.99 74.91"><defs><style>.cls-1{isolation:isolate;}.cls-2{fill:#212121;}</style></defs><title>map</title><g id="GALLERY" class="cls-1"><g class="cls-1"><path class="cls-2" d="M444.21,610.81a2.23,2.23,0,0,1-.69-1.71V539a2.36,2.36,0,0,1,.69-1.82,2.52,2.52,0,0,1,1.77-.64h2.68a2.27,2.27,0,0,1,2.24,1.39l24.29,47.3,24.4-47.3a2.41,2.41,0,0,1,2.25-1.39h2.57a2.46,2.46,0,0,1,1.82.64,2.49,2.49,0,0,1,.64,1.82V609.1a2.2,2.2,0,0,1-.7,1.71,2.48,2.48,0,0,1-1.76.64h-1.93a2.2,2.2,0,0,1-2.35-2.35v-58l-20.44,40.24a3.38,3.38,0,0,1-3.32,2.14H474a3.38,3.38,0,0,1-3.32-2.14L450.26,551.1v58a2.2,2.2,0,0,1-2.35,2.35H446A2.52,2.52,0,0,1,444.21,610.81Z" transform="translate(-443.52 -536.55)"/><path class="cls-2" d="M520.14,610.81a2.05,2.05,0,0,1-.64-1.5l.21-1.17,27.07-69.45a3.1,3.1,0,0,1,3.1-2.14h3.64a3.11,3.11,0,0,1,3.11,2.14l27.07,69.45.21,1.17a2.19,2.19,0,0,1-2.14,2.14h-2.14a2.2,2.2,0,0,1-1.55-.53,3,3,0,0,1-.8-1.07l-6.64-17.12H532.76l-6.63,17.12a3,3,0,0,1-.8,1.07,2.21,2.21,0,0,1-1.55.53h-2.14A2,2,0,0,1,520.14,610.81Zm47.94-24.5L551.7,544.14l-16.37,42.17Z" transform="translate(-443.52 -536.55)"/><path class="cls-2" d="M597.18,610.81a2.31,2.31,0,0,1-.64-1.71V539a2.52,2.52,0,0,1,.64-1.77,2.23,2.23,0,0,1,1.71-.69h26q11.45,0,18,5.72t6.58,16.43q0,10.69-6.58,16.42t-18,5.73H603.28V609.1a2.23,2.23,0,0,1-.69,1.71,2.52,2.52,0,0,1-1.77.64h-1.93A2.31,2.31,0,0,1,597.18,610.81Zm27.18-36.38q9.21,0,13.81-4t4.6-11.72q0-7.71-4.6-11.72t-13.81-4H603.28v31.46Z" transform="translate(-443.52 -536.55)"/></g></g></svg>