<svg id="Layer_1" data-name="Layer 1" xmlns="http://www.w3.org/2000/svg" viewBox="0 0 327.41 133.4"><defs><style>.cls-1{isolation:isolate;}.cls-2{fill:#212121;}.cls-3{fill:#656566;}</style></defs><title>padcv2</title><g id="The_Arts_Council" data-name="The Arts Council" class="cls-1"><g class="cls-1"><path class="cls-2" d="M398.15,485.88h12.06c8.7,0,12,5,12,13.43,0,7.74-4,12.54-11.94,12.54h-5.34v22.62h-6.78Zm9.9,21.11c5.82,0,7.74-1.62,7.74-7.62,0-6.89-.9-8.64-7.68-8.64h-3.18V507Z" transform="translate(-396 -485.88)"/><path class="cls-2" d="M426.77,527.87V499.79h6.42V526c0,2.46.54,4,2.76,4,1.44,0,3.06-1,4.5-2.16v-28h6.42v34.68h-6.42v-3.42c-2.28,2.16-5.1,3.9-8.46,3.9C427.85,535,426.77,531.23,426.77,527.87Z" transform="translate(-396 -485.88)"/><path class="cls-2" d="M460.55,532v2.52h-6.42V485.88h6.42v16.67a8.47,8.47,0,0,1,6.54-3.24c7.26,0,7.92,8.88,7.92,13v8.4c0,7.38-1.74,14.22-8.58,14.22A8.18,8.18,0,0,1,460.55,532Zm8-11.22v-8.4c0-4.32-.42-8-3.72-8a7.16,7.16,0,0,0-4.32,1.74v22.26a7.32,7.32,0,0,0,4.56,1.56C468.41,529.91,468.59,525.83,468.59,520.73Z" transform="translate(-396 -485.88)"/><path class="cls-2" d="M482,485.88h6.42v48.59H482Z" transform="translate(-396 -485.88)"/><path class="cls-2" d="M496.19,487.92h6.42v6.71h-6.42Zm0,11.87h6.42v34.68h-6.42Z" transform="translate(-396 -485.88)"/><path class="cls-2" d="M509.45,521.15v-8c0-8.7,1.74-13.86,10.14-13.86,7.56,0,9.48,3.78,9.48,10.92v2h-5.82v-2.1c0-4.5-.78-6.12-3.6-6.12-3.18,0-3.78,1.92-3.78,7.8v10.92c0,5.94,1,7.44,3.84,7.44,3.18,0,3.54-2.46,3.54-6v-2.82h5.82v2.4c0,7-2,11.16-9.48,11.16C511.07,535,509.45,529.49,509.45,521.15Z" transform="translate(-396 -485.88)"/><path class="cls-2" d="M556.73,485.88h6.53l10.38,48.59h-6.42L565,522.23h-9.89l-2.34,12.24h-6.36Zm7.37,31.49L560,495.47l-4,21.9Z" transform="translate(-396 -485.88)"/><path class="cls-2" d="M578.2,499.79h6.42v4.92c2.52-4.2,5.1-5.34,7.68-5.34a6.94,6.94,0,0,1,1,.06v7.08a10.6,10.6,0,0,0-3.54-.72c-2,0-3.54.72-5.16,3.36v25.32H578.2Z" transform="translate(-396 -485.88)"/><path class="cls-2" d="M599.62,526.67V504.05H596v-4.26h3.66V489.65H606v10.14h5.58v4.26H606v22.2c0,2.7.66,3.78,3.18,3.78a17.3,17.3,0,0,0,2.34-.18v4.74a27.7,27.7,0,0,1-4.44.36C601.66,535,599.62,531.71,599.62,526.67Z" transform="translate(-396 -485.88)"/></g></g><g id="_Johnson_County" data-name=" Johnson County" class="cls-1"><g class="cls-1"><path class="cls-3" d="M396,559.94h10.56c10.8,0,14.4,5,14.4,14.82v17.88c0,10.32-3.66,15.9-13.86,15.9H396Zm10.62,43.74c7.38,0,7.5-4.44,7.5-12.3V575.6c0-7.5-.72-10.62-7.68-10.62h-3.66v38.7Z" transform="translate(-396 -485.88)"/><path class="cls-3" d="M428.1,562h6.42v6.72H428.1Zm0,11.88h6.42v34.68H428.1Z" transform="translate(-396 -485.88)"/><path class="cls-3" d="M440,612.74c0-3.3,2.4-5.46,5-6.66-2.28-.66-3.36-2.16-3.36-3.72,0-2.58,1.44-4.14,3.84-6.3-2.64-2-4-4.8-4-10.32,0-8.1,3.35-12.36,9.77-12.36,3.72,0,5.94,1.32,7.14,3.84a14.09,14.09,0,0,1,4.68-3.6l1-.42,1.62,4.14a23.25,23.25,0,0,0-5.88,2.22,22,22,0,0,1,1.08,6.36c0,7.08-2.34,12-9.6,12a14.89,14.89,0,0,1-3.29-.42,5.49,5.49,0,0,0-1.15,2.64c0,.9.85,1.38,2.88,1.56l5.4.48c5.46.48,8,3.24,8,8.46,0,5.7-4,8.64-12.05,8.64C444.72,619.28,440,617.42,440,612.74Zm18.17-1.92c0-2.1-1-3.18-4.74-3.54L448,606.8c-1.32,1.32-2.58,2.64-2.58,4.32,0,2.1,1.43,3.12,6.11,3.12S458.15,613.22,458.15,610.82Zm-2.82-25.08c0-4.86-.48-7.92-4.08-7.92S447,580.7,447,585.74c0,4.32.6,7.68,4.19,7.68S455.33,590.6,455.33,585.74Z" transform="translate(-396 -485.88)"/><path class="cls-3" d="M469.13,562h6.42v6.72h-6.42Zm0,11.88h6.42v34.68h-6.42Z" transform="translate(-396 -485.88)"/><path class="cls-3" d="M484.79,600.74V578.12h-3.66v-4.26h3.66V563.72h6.42v10.14h5.58v4.26h-5.58v22.2c0,2.7.66,3.78,3.18,3.78a17.3,17.3,0,0,0,2.34-.18v4.74a27.7,27.7,0,0,1-4.44.36C486.83,609,484.79,605.78,484.79,600.74Z" transform="translate(-396 -485.88)"/><path class="cls-3" d="M501.41,601c0-8.64,6.24-11.16,13.68-14.1v-2.46c0-4.2-.48-6.24-3.48-6.24-2.64,0-3.66,1.92-3.66,4.92v1.74l-6.36-.24c.12-7.68,3.36-11.22,10.44-11.22,6.84,0,9.48,3.84,9.48,11V600.2a62.15,62.15,0,0,0,.6,8.34h-5.88c-.24-1.26-.66-3.48-.84-5.1-.84,2.7-3.06,5.58-7,5.58S501.41,605.06,501.41,601Zm13.68-.36v-9.84c-4,2.28-7.26,4.2-7.26,8.22,0,2.82,1.08,4.5,3.06,4.5S514.55,601.52,515.09,600.62Z" transform="translate(-396 -485.88)"/><path class="cls-3" d="M528.89,559.94h6.42v48.6h-6.42Z" transform="translate(-396 -485.88)"/><path class="cls-3" d="M556.61,592.94V575.78c0-9.84,2.76-16.26,13.08-16.26,9.06,0,12.24,5.22,12.24,14v3.84h-6.42v-3.42c0-5.4-.12-9.12-5.76-9.12s-6.3,4-6.3,10V594c0,7.32,1.62,9.72,6.3,9.72,5.46,0,5.76-3.9,5.76-9.66v-3.6h6.42v3.6c0,8.94-2.7,15-12.24,15C559.37,609.08,556.61,602,556.61,592.94Z" transform="translate(-396 -485.88)"/><path class="cls-3" d="M587.75,601c0-8.64,6.24-11.16,13.68-14.1v-2.46c0-4.2-.48-6.24-3.48-6.24-2.64,0-3.66,1.92-3.66,4.92v1.74l-6.36-.24c.12-7.68,3.36-11.22,10.44-11.22,6.84,0,9.48,3.84,9.48,11V600.2a62.15,62.15,0,0,0,.6,8.34h-5.88c-.24-1.26-.66-3.48-.84-5.1-.84,2.7-3.06,5.58-7,5.58S587.75,605.06,587.75,601Zm13.68-.36v-9.84c-4,2.28-7.26,4.2-7.26,8.22,0,2.82,1.08,4.5,3.06,4.5S600.89,601.52,601.43,600.62Z" transform="translate(-396 -485.88)"/><path class="cls-3" d="M615.89,600.74V578.12h-3.66v-4.26h3.66V563.72h6.42v10.14h5.58v4.26h-5.58v22.2c0,2.7.66,3.78,3.18,3.78a17.3,17.3,0,0,0,2.34-.18v4.74a27.7,27.7,0,0,1-4.44.36C617.93,609,615.89,605.78,615.89,600.74Z" transform="translate(-396 -485.88)"/><path class="cls-3" d="M632.51,601c0-8.64,6.24-11.16,13.68-14.1v-2.46c0-4.2-.48-6.24-3.48-6.24-2.64,0-3.66,1.92-3.66,4.92v1.74l-6.36-.24c.12-7.68,3.36-11.22,10.44-11.22,6.84,0,9.48,3.84,9.48,11V600.2a62.15,62.15,0,0,0,.6,8.34h-5.88c-.24-1.26-.66-3.48-.84-5.1-.84,2.7-3.06,5.58-7,5.58S632.51,605.06,632.51,601Zm13.68-.36v-9.84c-4,2.28-7.26,4.2-7.26,8.22,0,2.82,1.08,4.5,3.06,4.5S645.65,601.52,646.19,600.62Z" transform="translate(-396 -485.88)"/><path class="cls-3" d="M660,559.94h6.42v48.6H660Z" transform="translate(-396 -485.88)"/><path class="cls-3" d="M673.13,596.24V586.16c0-7.8,2.4-12.78,10.14-12.78s10.08,5,10.08,12.78v10.08c0,7.8-2.4,12.78-10.08,12.78S673.13,604,673.13,596.24Zm13.8.42V585.8c0-3.9,0-7.68-3.66-7.68s-3.72,3.78-3.72,7.68v10.86c0,3.9,0,7.62,3.72,7.62S686.93,600.56,686.93,596.66Z" transform="translate(-396 -485.88)"/><path class="cls-3" d="M697.79,612.74c0-3.3,2.4-5.46,5-6.66-2.28-.66-3.36-2.16-3.36-3.72,0-2.58,1.44-4.14,3.84-6.3-2.64-2-4-4.8-4-10.32,0-8.1,3.36-12.36,9.78-12.36,3.72,0,5.94,1.32,7.14,3.84a14.09,14.09,0,0,1,4.68-3.6l1-.42,1.62,4.14a23.25,23.25,0,0,0-5.88,2.22,22,22,0,0,1,1.08,6.36c0,7.08-2.34,12-9.6,12a15.06,15.06,0,0,1-3.3-.42,5.48,5.48,0,0,0-1.14,2.64c0,.9.84,1.38,2.88,1.56l5.4.48c5.46.48,8,3.24,8,8.46,0,5.7-4,8.64-12.06,8.64C702.53,619.28,697.79,617.42,697.79,612.74ZM716,610.82c0-2.1-1-3.18-4.74-3.54l-5.46-.48c-1.32,1.32-2.58,2.64-2.58,4.32,0,2.1,1.44,3.12,6.12,3.12S716,613.22,716,610.82Zm-2.82-25.08c0-4.86-.48-7.92-4.08-7.92s-4.26,2.88-4.26,7.92c0,4.32.6,7.68,4.2,7.68S713.15,590.6,713.15,585.74Z" transform="translate(-396 -485.88)"/></g></g></svg>